<?xml version="1.0" encoding="UTF-8" standalone="no"?>
<!-- Created with Inkscape (http://www.inkscape.org/) -->

<svg
   version="1.1"
   id="svg824"
   width="515.66998"
   height="123.55048"
   viewBox="0 0 515.66997 123.55048"
   sodipodi:docname="status_ins.svg"
   inkscape:version="1.1 (c68e22c387, 2021-05-23)"
   inkscape:export-filename="C:\Users\Loxu\Documents\htdocs\fernn\public\img\logo.png"
   inkscape:export-xdpi="1226.84"
   inkscape:export-ydpi="1226.84"
   xmlns:inkscape="http://www.inkscape.org/namespaces/inkscape"
   xmlns:sodipodi="http://sodipodi.sourceforge.net/DTD/sodipodi-0.dtd"
   xmlns="http://www.w3.org/2000/svg"
   xmlns:svg="http://www.w3.org/2000/svg">
  <defs
     id="defs828" />
  <sodipodi:namedview
     id="namedview826"
     pagecolor="#ffffff"
     bordercolor="#666666"
     borderopacity="1.0"
     inkscape:pageshadow="2"
     inkscape:pageopacity="0.0"
     inkscape:pagecheckerboard="0"
     showgrid="false"
     fit-margin-top="0"
     fit-margin-left="0"
     fit-margin-right="0"
     fit-margin-bottom="0"
     inkscape:zoom="1"
     inkscape:cx="295.5"
     inkscape:cy="154.5"
     inkscape:window-width="1920"
     inkscape:window-height="991"
     inkscape:window-x="-9"
     inkscape:window-y="-9"
     inkscape:window-maximized="1"
     inkscape:current-layer="g830" />
  <g
     inkscape:groupmode="layer"
     inkscape:label="Image"
     id="g830"
     transform="translate(90.97801,-93.119135)">
    <path
       style="fill:none;fill-opacity:0.898039;stroke:#3d90e3;stroke-width:4.7811;stroke-linecap:butt;stroke-linejoin:miter;stroke-miterlimit:4;stroke-dasharray:none;stroke-opacity:1"
       d="m 305.58412,109.78038 c -3.29727,-3.92162 -2.13395,-7.38385 1.74516,-7.74622 9.84147,-0.91934 106.06309,-5.959881 106.06309,-5.959881 10.32303,-0.826967 10.8137,-1.482269 5.8827,5.826051 l -48.68291,65.7858 c -2.8548,3.45292 -5.32543,5.8726 -9.19047,1.15761 l -16.62998,-20.54133 c -1.5173,-1.7822 -4.55747,-4.93806 -7.59551,-4.18795 -1.82414,0.45039 -4.01054,3.54698 -5.04306,5.38735 l -8.2905,13.58321 c -3.98835,4.52053 -3.83726,3.20535 -3.21211,-1.67124 l 3.56684,-20.30431 c 0.18829,-1.62853 0.87946,-5.22084 0.8058,-6.38445 -0.24075,-3.80275 -2.83711,-5.47777 -4.81207,-8.10368 z"
       id="path1144"
       sodipodi:nodetypes="cssccccsccccscc" />
    <path
       style="fill:none;fill-opacity:0.898039;stroke:#3d90e3;stroke-width:4.7811;stroke-linecap:butt;stroke-linejoin:miter;stroke-miterlimit:4;stroke-dasharray:none;stroke-opacity:1"
       d="M 320.76279,166.03153 347.36694,150.2757"
       id="path1835"
       sodipodi:nodetypes="cc" />
    <path
       style="fill:none;fill-opacity:0.898039;stroke:#3d90e3;stroke-width:4.7811;stroke-linecap:butt;stroke-linejoin:miter;stroke-miterlimit:4;stroke-dasharray:none;stroke-opacity:1"
       d="M 336.62694,144.37714 423.04857,96.206383 324.541,133.24127"
       id="path1837"
       sodipodi:nodetypes="ccc" />
    <path
       style="fill:#3d90e3;fill-opacity:1;stroke:#3d90e3;stroke-width:1px;stroke-linecap:butt;stroke-linejoin:miter;stroke-opacity:1"
       d="m -90.473413,147.0918 c 0.256406,1.49316 1.060687,4.43788 4.157502,2.98663 1.323115,-0.7243 3.723769,-3.90734 4.239119,-6.74286 0.149335,-2.50516 -2.514058,-3.43775 -4.156045,-2.22362 -1.126712,0.80721 -4.372963,3.95736 -4.240576,5.97985 z"
       id="path16180"
       sodipodi:nodetypes="ccccc"
       inkscape:transform-center-x="-5.4712366"
       inkscape:transform-center-y="-1.8650906" />
    <path
       style="fill:#3d90e3;fill-opacity:1;stroke:#3d90e3;stroke-width:1.03876px;stroke-linecap:butt;stroke-linejoin:miter;stroke-opacity:1"
       d="m -55.281063,112.70944 c -0.227437,1.41716 -0.355554,4.33084 3.45585,4.28515 1.663516,-0.11133 5.310811,-1.95935 6.818169,-4.25165 1.003422,-2.14699 -1.54056,-4.0284 -3.711099,-3.61255 -1.480677,0.26253 -6.024245,1.74504 -6.56292,3.57905 z"
       id="path16180-9-6"
       sodipodi:nodetypes="ccccc"
       inkscape:transform-center-x="-6.6680004"
       inkscape:transform-center-y="0.56651185" />
    <path
       style="fill:#cbdef1;fill-opacity:1;stroke:#cbdef1;stroke-width:1.03876px;stroke-linecap:butt;stroke-linejoin:miter;stroke-opacity:1"
       d="m 91.782255,172.75981 c -0.0122,1.43524 0.29846,4.33514 4.05984,3.71795 1.62796,-0.35975 4.956575,-2.73424 6.102825,-5.2268 0.66983,-2.27327 -2.127705,-3.75156 -4.211245,-3.01465 -1.4245,0.48178 -5.6941,2.62942 -5.95142,4.5235 z"
       id="path16180-9-6-9"
       sodipodi:nodetypes="ccccc"
       inkscape:transform-center-x="-6.6171572"
       inkscape:transform-center-y="-0.43626897" />
    <path
       style="fill:#cbdef1;fill-opacity:1;stroke:#cbdef1;stroke-width:1.03876px;stroke-linecap:butt;stroke-linejoin:miter;stroke-opacity:1"
       d="m 138.61247,128.87751 c 0.16432,1.42585 0.82913,4.26556 4.4861,3.19065 1.57138,-0.55716 4.58285,-3.32284 5.41398,-5.9374 0.38529,-2.33838 -2.57277,-3.46154 -4.54991,-2.47408 -1.35447,0.65325 -5.32766,3.30948 -5.35017,5.22083 z"
       id="path16180-9-6-9-1"
       sodipodi:nodetypes="ccccc"
       inkscape:transform-center-x="-6.4436595"
       inkscape:transform-center-y="-1.2389942" />
    <path
       style="fill:#cbdef1;fill-opacity:1;stroke:#cbdef1;stroke-width:1.03876px;stroke-linecap:butt;stroke-linejoin:miter;stroke-opacity:1"
       d="m 123.64636,141.20358 c 0.16432,1.42585 0.82913,4.26556 4.4861,3.19065 1.57138,-0.55716 4.58285,-3.32284 5.41398,-5.9374 0.38529,-2.33838 -2.57277,-3.46154 -4.54991,-2.47408 -1.35447,0.65325 -5.32766,3.30948 -5.35017,5.22083 z"
       id="path16180-9-6-9-1-4"
       sodipodi:nodetypes="ccccc"
       inkscape:transform-center-x="-6.4436595"
       inkscape:transform-center-y="-1.2389942" />
    <path
       style="fill:#cbdef1;fill-opacity:1;stroke:#cbdef1;stroke-width:1.14842px;stroke-linecap:butt;stroke-linejoin:miter;stroke-opacity:1"
       d="m 235.25208,166.2581 c -1.2589,0.69398 -3.63687,2.47207 -1.23985,6.38487 1.11831,1.64783 4.83553,4.20898 7.57766,4.26517 2.31536,-0.36986 2.22374,-4.2352 0.55113,-6.20787 -1.12431,-1.35954 -5.10839,-5.08755 -6.88894,-4.44217 z"
       id="path16180-9-6-2"
       sodipodi:nodetypes="ccccc"
       inkscape:transform-center-x="-3.6396824"
       inkscape:transform-center-y="6.9627873" />
    <path
       style="fill:#cbdef1;fill-opacity:1;stroke:#cbdef1;stroke-width:1.14842px;stroke-linecap:butt;stroke-linejoin:miter;stroke-opacity:1"
       d="m 210.27252,126.59919 c -1.27409,0.66567 -3.69121,2.39017 -1.38224,6.35557 1.0812,1.67241 4.74025,4.316 7.48044,4.43347 2.32304,-0.31802 2.31784,-4.18444 0.68974,-6.194 -1.09364,-1.38433 -4.99341,-5.20046 -6.78794,-4.59504 z"
       id="path16180-9-6-2-5"
       sodipodi:nodetypes="ccccc"
       inkscape:transform-center-x="-3.4757535"
       inkscape:transform-center-y="7.0528025" />
    <path
       style="fill:#cbdef1;fill-opacity:1;stroke:#cbdef1;stroke-width:1px;stroke-linecap:butt;stroke-linejoin:miter;stroke-opacity:1"
       d="m 198.68894,124.14333 c 1.3022,-0.77427 3.76329,-2.5802 1.29898,-4.95151 -1.15024,-0.9758 -4.98205,-2.07679 -7.81399,-1.54211 -2.39239,0.75805 -2.30891,3.57876 -0.58712,4.67681 1.15727,0.76275 5.2613,2.66498 7.10213,1.81681 z"
       id="path25189"
       sodipodi:nodetypes="ccccc"
       inkscape:transform-center-x="1.2422022"
       inkscape:transform-center-y="-2.8025661" />
    <path
       style="fill:#cbdef1;fill-opacity:1;stroke:#cbdef1;stroke-width:1.04819px;stroke-linecap:butt;stroke-linejoin:miter;stroke-opacity:1"
       d="m 108.66815,158.75796 c -1.67394,3.28836 2.06725,4.13169 3.24669,3.4556 1.99223,-1.28595 3.61075,-2.97105 5.01528,-4.46289 1.32501,-1.40738 2.09482,-2.7452 2.97533,-4.64345 0.99011,-2.28328 -0.57356,-4.99644 -3.29698,-3.07666 -2.54901,1.66199 -5.21465,4.17099 -7.94032,8.7274 z"
       id="path25224"
       sodipodi:nodetypes="ccsccc" />
    <path
       style="fill:#cbdef1;fill-opacity:1;stroke:#cbdef1;stroke-width:1.04819px;stroke-linecap:butt;stroke-linejoin:miter;stroke-opacity:1"
       d="m 225.84807,146.78496 c -2.52052,-2.69487 -4.58899,0.53453 -4.35557,1.87383 0.52956,2.31132 1.5618,4.40743 2.48531,6.23648 0.87123,1.7255 1.86639,2.90534 3.35065,4.38036 1.80882,1.70933 4.89256,1.16449 4.01647,-2.05032 -0.69321,-2.96295 -2.14293,-6.32437 -5.49686,-10.44035 z"
       id="path25224-54"
       sodipodi:nodetypes="ccsccc" />
    <path
       style="fill:#3d90e3;fill-opacity:1;stroke:#3d90e3;stroke-width:1px;stroke-linecap:butt;stroke-linejoin:miter;stroke-opacity:1"
       d="m 21.513182,160.28654 c -1.759471,-2.45238 -4.166208,1.39205 -3.896352,2.6718 0.581455,2.18467 1.612578,4.06205 2.533202,5.69593 0.868465,1.54138 1.826937,2.52015 3.244337,3.6986 1.723639,1.34894 4.784735,-0.0788 3.579362,-2.78241 -1.320444,-3.08951 -3.355369,-5.93484 -5.460551,-9.28392 z"
       id="path25224-5"
       sodipodi:nodetypes="ccscccc" />
    <path
       style="fill:#cbdef1;fill-opacity:1;stroke:#cbdef1;stroke-width:1px;stroke-linecap:butt;stroke-linejoin:miter;stroke-opacity:1"
       d="m 165.32416,121.22729 c 2.85438,-0.98103 -0.13692,-4.39049 -1.44026,-4.49951 -2.25963,-0.0705 -4.35405,0.37808 -6.18349,0.79066 -1.72587,0.3892 -2.93866,1.02621 -4.47452,2.04549 -1.78713,1.26361 -1.29865,4.60579 1.63723,4.22765 4.0437,-0.35994 7.33048,-1.26276 10.46104,-2.56429 z"
       id="path25224-0"
       sodipodi:nodetypes="ccsccc" />
    <path
       style="fill:#3d90e3;fill-opacity:1;stroke:#3d90e3;stroke-width:1px;stroke-linecap:butt;stroke-linejoin:miter;stroke-opacity:1"
       d="m -64.833976,125.22569 c 1.857548,-2.37895 -2.509142,-3.60546 -3.66106,-2.98606 -1.932466,1.17324 -3.443405,2.69141 -4.751845,4.03493 -1.234383,1.26744 -1.903568,2.46278 -2.635061,4.15474 -0.808862,2.03378 1.42326,4.56882 3.677909,2.65077 3.193159,-2.50695 5.455798,-5.05617 7.370057,-7.85438 z"
       id="path25224-0-4"
       sodipodi:nodetypes="ccsccc" />
    <path
       style="fill:#3d90e3;fill-opacity:1;stroke:#3d90e3;stroke-width:1px;stroke-linecap:butt;stroke-linejoin:miter;stroke-opacity:1"
       d="m -6.5329602,115.51003 c 2.8495444,0.995 2.608471,-3.53426 1.6518988,-4.42617 -1.7317899,-1.45324 -3.6548216,-2.39648 -5.3474206,-3.20403 -1.596769,-0.76188 -2.943715,-1.01166 -4.780968,-1.16094 -2.185823,-0.11275 -3.869574,2.81536 -1.328956,4.33446 3.399752,2.21872 6.5406468,3.54265 9.8054458,4.45668 z"
       id="path25224-0-6"
       sodipodi:nodetypes="ccsccc" />
    <path
       style="fill:#cbdef1;fill-opacity:1;stroke:#cbdef1;stroke-width:1px;stroke-linecap:butt;stroke-linejoin:miter;stroke-opacity:1"
       d="m 79.295041,184.31485 c 2.830706,-1.0474 -0.239368,-4.3861 -1.544893,-4.46467 -2.260668,-0.0177 -4.344042,0.47961 -6.163352,0.93479 -1.716316,0.42937 -2.913916,1.09451 -4.42556,2.14936 -1.757145,1.30499 -1.190783,4.63485 1.735472,4.18829 4.034194,-0.45423 7.299008,-1.43353 10.398333,-2.80777 z"
       id="path25224-0-59"
       sodipodi:nodetypes="ccsccc" />
    <path
       style="fill:#3d90e3;fill-opacity:1;stroke:#3d90e3;stroke-width:1px;stroke-linecap:butt;stroke-linejoin:miter;stroke-opacity:1"
       d="m 13.85302,151.98938 c 1.69778,2.49549 4.199614,-1.28777 3.96172,-2.57385 -0.526818,-2.19849 -1.510837,-4.10099 -2.390421,-5.7573 -0.829771,-1.56256 -1.763544,-2.56492 -3.151152,-3.77831 -1.689468,-1.39149 -4.7852063,-0.0405 -3.6476021,2.69232 1.4116411,3.80634 3.1477901,6.73957 5.2274551,9.41714 z"
       id="path25224-0-0"
       sodipodi:nodetypes="ccsccc" />
    <path
       style="fill:#3d90e3;fill-opacity:1;stroke:#3d90e3;stroke-width:1.03876px;stroke-linecap:butt;stroke-linejoin:miter;stroke-opacity:1"
       d="m 33.360294,179.5589 c -1.242749,0.71808 -3.583542,2.45779 -1.142396,5.3852 1.136356,1.21998 4.871869,2.8825 7.601266,2.60477 2.298603,-0.57693 2.152162,-3.73758 0.459588,-5.15864 -1.13821,-0.98275 -5.155947,-3.57113 -6.918458,-2.83133 z"
       id="path16180-9-6-91"
       sodipodi:nodetypes="ccccc"
       inkscape:transform-center-x="-3.7262278"
       inkscape:transform-center-y="5.2344807" />
    <path
       style="fill:#3d90e3;fill-opacity:1;stroke:#3d90e3;stroke-width:1.03876px;stroke-linecap:butt;stroke-linejoin:miter;stroke-opacity:1"
       d="m 3.0593727,120.83777 c -1.4351521,0.0201 -4.3273319,0.39586 -3.62571983,4.14241 0.396271,1.61946 2.84500013,4.89387 5.36270763,5.98377 2.2877819,0.61844 3.7027645,-2.21152 2.9191952,-4.27798 -0.5136903,-1.41331 -2.7567955,-5.63355 -4.656183,-5.8482 z"
       id="path16180-9-6-91-1"
       sodipodi:nodetypes="ccccc"
       inkscape:transform-center-x="-0.5839424"
       inkscape:transform-center-y="6.5917882" />
    <path
       style="fill:#cbdef1;fill-opacity:1;stroke:#cbdef1;stroke-width:1px;stroke-linecap:butt;stroke-linejoin:miter;stroke-opacity:1"
       d="m 262.94895,187.69991 c 2.94371,0.66665 2.19243,-3.80636 1.14119,-4.5845 -1.88489,-1.24823 -3.90218,-1.96814 -5.6752,-2.5793 -1.67262,-0.57656 -3.03917,-0.67255 -4.88151,-0.61329 -2.18458,0.13496 -3.52669,3.23456 -0.83071,4.45686 3.62867,1.82037 6.89906,2.78094 10.24623,3.32023 z"
       id="path25224-0-5"
       sodipodi:nodetypes="ccsccc" />
    <path
       style="fill:#cbdef1;fill-opacity:1;stroke:#cbdef1;stroke-width:1px;stroke-linecap:butt;stroke-linejoin:miter;stroke-opacity:1"
       d="m 292.60462,182.8549 c -0.40503,1.45986 -0.93373,4.46631 2.48624,4.47476 1.50566,-0.0907 5.03474,-1.94554 6.71043,-4.2903 1.20372,-2.20209 -0.80739,-4.18172 -2.81041,-3.78403 -1.36339,0.24945 -5.64324,1.71385 -6.38626,3.59957 z"
       id="path25189-9"
       sodipodi:nodetypes="ccccc"
       inkscape:transform-center-x="-3.0783573"
       inkscape:transform-center-y="1.335093" />
    <path
       style="fill:#cbdef1;fill-opacity:1;stroke:#cbdef1;stroke-width:1px;stroke-linecap:butt;stroke-linejoin:miter;stroke-opacity:1"
       d="m 306.81128,173.33067 c -0.40503,1.45986 -0.93373,4.46631 2.48624,4.47476 1.50566,-0.0907 5.03474,-1.94554 6.71043,-4.2903 1.20372,-2.20209 -0.80739,-4.18172 -2.81041,-3.78403 -1.36339,0.24945 -5.64324,1.71385 -6.38626,3.59957 z"
       id="path25189-9-5"
       sodipodi:nodetypes="ccccc"
       inkscape:transform-center-x="-3.0783573"
       inkscape:transform-center-y="1.335093" />
    <ellipse
       style="fill:#3d90e3;fill-opacity:1;stroke:#3d90e3;stroke-width:8.35089;stroke-opacity:1"
       id="path11041"
       cx="-30.293325"
       cy="108.10664"
       rx="3.3836131"
       ry="3.3836114" />
    <rect
       style="fill:#3d90e3;fill-opacity:1;stroke:#3d90e3;stroke-width:10.6551;stroke-linejoin:round;stroke-miterlimit:4;stroke-dasharray:none;stroke-opacity:1"
       id="rect11733"
       width="8.2425547"
       height="8.242506"
       x="-34.414597"
       y="122.5785" />
    <text
       xml:space="preserve"
       style="font-style:normal;font-weight:normal;font-size:22.5276px;line-height:1.25;font-family:sans-serif;fill:#fefefe;fill-opacity:1;stroke:none;stroke-width:0.563189"
       x="-37.338058"
       y="138.13342"
       id="text14019"
       transform="scale(1.0324502,0.9685697)"><tspan
         sodipodi:role="line"
         id="tspan14017"
         x="-37.338058"
         y="138.13342"
         style="font-style:normal;font-variant:normal;font-weight:normal;font-stretch:normal;font-family:'Rockwell Extra Bold';-inkscape-font-specification:'Rockwell Extra Bold, ';fill:#fefefe;fill-opacity:1;stroke-width:0.563189">1</tspan></text>
    <ellipse
       style="fill:#3d90e3;fill-opacity:1;stroke:#3d90e3;stroke-width:8.35089;stroke-opacity:1"
       id="path11041-78"
       cx="53.356277"
       cy="187.60733"
       rx="3.3836131"
       ry="3.3836114" />
    <rect
       style="fill:#3d90e3;fill-opacity:1;stroke:#3d90e3;stroke-width:10.6551;stroke-linejoin:round;stroke-miterlimit:4;stroke-dasharray:none;stroke-opacity:1"
       id="rect11733-6"
       width="8.2425547"
       height="8.242506"
       x="49.235008"
       y="164.58842" />
    <text
       xml:space="preserve"
       style="font-style:normal;font-weight:normal;font-size:19.4077px;line-height:1.25;font-family:sans-serif;fill:#fefefe;fill-opacity:1;stroke:none;stroke-width:0.485191"
       x="53.453064"
       y="156.36922"
       id="text14019-1"
       transform="scale(0.88946329,1.1242735)"><tspan
         sodipodi:role="line"
         id="tspan14017-7"
         x="53.453064"
         y="156.36922"
         style="font-style:normal;font-variant:normal;font-weight:normal;font-stretch:normal;font-family:'Rockwell Extra Bold';-inkscape-font-specification:'Rockwell Extra Bold, ';fill:#fefefe;fill-opacity:1;stroke-width:0.485191">2</tspan></text>
    <ellipse
       style="fill:#3d90e3;fill-opacity:1;stroke:#3d90e3;stroke-width:8.35089;stroke-opacity:1"
       id="path11041-8"
       cx="176.23521"
       cy="118.7527"
       rx="3.3836131"
       ry="3.3836114" />
    <rect
       style="fill:#3d90e3;fill-opacity:1;stroke:#3d90e3;stroke-width:10.6551;stroke-linejoin:round;stroke-miterlimit:4;stroke-dasharray:none;stroke-opacity:1"
       id="rect11733-1"
       width="8.2425547"
       height="8.242506"
       x="172.11395"
       y="133.22456" />
    <text
       xml:space="preserve"
       style="font-style:normal;font-weight:normal;font-size:18.7352px;line-height:1.25;font-family:sans-serif;fill:#fefefe;fill-opacity:1;stroke:none;stroke-width:0.468379"
       x="197.09142"
       y="125.03785"
       id="text14019-0"
       transform="scale(0.86650922,1.1540558)"><tspan
         sodipodi:role="line"
         id="tspan14017-3"
         x="197.09142"
         y="125.03785"
         style="font-style:normal;font-variant:normal;font-weight:normal;font-stretch:normal;font-family:'Rockwell Extra Bold';-inkscape-font-specification:'Rockwell Extra Bold, ';fill:#fefefe;fill-opacity:1;stroke-width:0.468379">3</tspan></text>
    <ellipse
       style="fill:#3d90e3;fill-opacity:1;stroke:#3d90e3;stroke-width:8.35089;stroke-opacity:1"
       id="path11041-9"
       cx="277.7529"
       cy="187.60733"
       rx="3.3836131"
       ry="3.3836114" />
    <rect
       style="fill:#3d90e3;fill-opacity:1;stroke:#3d90e3;stroke-width:10.6551;stroke-linejoin:round;stroke-miterlimit:4;stroke-dasharray:none;stroke-opacity:1"
       id="rect11733-0"
       width="8.2425547"
       height="8.242506"
       x="273.63165"
       y="164.58842" />
    <text
       xml:space="preserve"
       style="font-style:normal;font-weight:normal;font-size:18.5808px;line-height:1.25;font-family:sans-serif;fill:#fefefe;fill-opacity:1;stroke:none;stroke-width:0.464518"
       x="320.03012"
       y="149.70657"
       id="text14019-4"
       transform="scale(0.85156462,1.174309)"><tspan
         sodipodi:role="line"
         id="tspan14017-32"
         x="320.03012"
         y="149.70657"
         style="font-style:normal;font-variant:normal;font-weight:normal;font-stretch:normal;font-family:'Rockwell Extra Bold';-inkscape-font-specification:'Rockwell Extra Bold, ';fill:#fefefe;fill-opacity:1;stroke-width:0.464518">4</tspan></text>
    <text
       xml:space="preserve"
       style="font-style:normal;font-weight:normal;font-size:17.3333px;line-height:1.25;font-family:sans-serif;fill:#000000;fill-opacity:1;stroke:none"
       x="-78.478012"
       y="158.61914"
       id="text33698"><tspan
         sodipodi:role="line"
         id="tspan33696"
         x="-78.478012"
         y="158.61914"
         style="font-size:17.3333px">Zgłoszono</tspan></text>
    <text
       xml:space="preserve"
       style="font-style:normal;font-weight:normal;font-size:17.3333px;line-height:1.25;font-family:sans-serif;fill:#000000;fill-opacity:1;stroke:none"
       x="28.021992"
       y="150.36914"
       id="text37568"><tspan
         sodipodi:role="line"
         id="tspan37566"
         x="28.021992"
         y="150.36914"
         style="font-size:17.3333px">Wysłano</tspan></text>
    <text
       xml:space="preserve"
       style="font-style:normal;font-weight:normal;font-size:17.3333px;line-height:1.25;font-family:sans-serif;fill:#000000;fill-opacity:1;stroke:none"
       x="124.27199"
       y="165.36914"
       id="text40862"><tspan
         sodipodi:role="line"
         id="tspan40860"
         x="124.27199"
         y="165.36914"
         style="font-size:17.3333px">Do odbioru</tspan></text>
    <text
       xml:space="preserve"
       style="font-style:normal;font-weight:normal;font-size:17.3333px;line-height:1.25;font-family:sans-serif;fill:#000000;fill-opacity:1;stroke:none"
       x="233.41844"
       y="153.08664"
       id="text43194"><tspan
         sodipodi:role="line"
         id="tspan43192"
         x="233.41844"
         y="153.08664"
         style="font-size:17.3333px">Odebrana</tspan></text>
  </g>
</svg>
