<svg width="515.67" height="123.55" version="1.1" viewBox="0 0 515.67 123.55" xmlns="http://www.w3.org/2000/svg">
 <g transform="translate(90.978 -93.119)">
  <g fill="none" stroke="#3d90e3" stroke-width="4.7811">
   <path d="m305.58 109.78c-3.2973-3.9216-2.134-7.3838 1.7452-7.7462 9.8415-0.91934 106.06-5.9599 106.06-5.9599 10.323-0.82697 10.814-1.4823 5.8827 5.8261l-48.683 65.786c-2.8548 3.4529-5.3254 5.8726-9.1905 1.1576l-16.63-20.541c-1.5173-1.7822-4.5575-4.9381-7.5955-4.188-1.8241 0.45039-4.0105 3.547-5.0431 5.3874l-8.2905 13.583c-3.9884 4.5205-3.8373 3.2054-3.2121-1.6712l3.5668-20.304c0.18829-1.6285 0.87946-5.2208 0.8058-6.3844-0.24075-3.8028-2.8371-5.4778-4.8121-8.1037z"/>
   <path d="m320.76 166.03 26.604-15.756"/>
   <path d="m336.63 144.38 86.422-48.171-98.508 37.035"/>
  </g>
  <path d="m-90.473 147.09c0.25641 1.4932 1.0607 4.4379 4.1575 2.9866 1.3231-0.7243 3.7238-3.9073 4.2391-6.7429 0.14934-2.5052-2.5141-3.4378-4.156-2.2236-1.1267 0.80721-4.373 3.9574-4.2406 5.9798z" fill="#3d90e3" stroke="#3d90e3" stroke-width="1px"/>
  <path d="m-55.281 112.71c-0.22744 1.4172-0.35555 4.3308 3.4558 4.2852 1.6635-0.11133 5.3108-1.9594 6.8182-4.2516 1.0034-2.147-1.5406-4.0284-3.7111-3.6126-1.4807 0.26253-6.0242 1.745-6.5629 3.579z" fill="#3d90e3" stroke="#3d90e3" stroke-width="1.0388px"/>
  <g fill="#cbdef1" stroke="#cbdef1">
   <g stroke-width="1.0388px">
    <path d="m91.782 172.76c-0.0122 1.4352 0.29846 4.3351 4.0598 3.718 1.628-0.35975 4.9566-2.7342 6.1028-5.2268 0.66983-2.2733-2.1277-3.7516-4.2112-3.0146-1.4245 0.48178-5.6941 2.6294-5.9514 4.5235z"/>
    <path d="m138.61 128.88c0.16432 1.4258 0.82913 4.2656 4.4861 3.1906 1.5714-0.55716 4.5828-3.3228 5.414-5.9374 0.38529-2.3384-2.5728-3.4615-4.5499-2.4741-1.3545 0.65325-5.3277 3.3095-5.3502 5.2208z"/>
    <path d="m123.65 141.2c0.16432 1.4258 0.82913 4.2656 4.4861 3.1906 1.5714-0.55716 4.5828-3.3228 5.414-5.9374 0.38529-2.3384-2.5728-3.4615-4.5499-2.4741-1.3545 0.65325-5.3277 3.3095-5.3502 5.2208z"/>
   </g>
   <path d="m235.25 166.26c-1.2589 0.69398-3.6369 2.4721-1.2398 6.3849 1.1183 1.6478 4.8355 4.209 7.5777 4.2652 2.3154-0.36986 2.2237-4.2352 0.55113-6.2079-1.1243-1.3595-5.1084-5.0876-6.8889-4.4422z" stroke-width="1.1484px"/>
   <path d="m210.27 126.6c-1.2741 0.66567-3.6912 2.3902-1.3822 6.3556 1.0812 1.6724 4.7402 4.316 7.4804 4.4335 2.323-0.31802 2.3178-4.1844 0.68974-6.194-1.0936-1.3843-4.9934-5.2005-6.7879-4.595z" stroke-width="1.1484px"/>
   <path d="m198.69 124.14c1.3022-0.77427 3.7633-2.5802 1.299-4.9515-1.1502-0.9758-4.982-2.0768-7.814-1.5421-2.3924 0.75805-2.3089 3.5788-0.58712 4.6768 1.1573 0.76275 5.2613 2.665 7.1021 1.8168z" stroke-width="1px"/>
   <path d="m108.67 158.76c-1.6739 3.2884 2.0672 4.1317 3.2467 3.4556 1.9922-1.286 3.6108-2.971 5.0153-4.4629 1.325-1.4074 2.0948-2.7452 2.9753-4.6434 0.99011-2.2833-0.57356-4.9964-3.297-3.0767-2.549 1.662-5.2146 4.171-7.9403 8.7274z" stroke-width="1.0482px"/>
   <path d="m225.85 146.78c-2.5205-2.6949-4.589 0.53453-4.3556 1.8738 0.52956 2.3113 1.5618 4.4074 2.4853 6.2365 0.87123 1.7255 1.8664 2.9053 3.3506 4.3804 1.8088 1.7093 4.8926 1.1645 4.0165-2.0503-0.69321-2.963-2.1429-6.3244-5.4969-10.44z" stroke-width="1.0482px"/>
  </g>
  <g stroke-width="1px">
   <path d="m21.513 160.29c-1.7595-2.4524-4.1662 1.392-3.8964 2.6718 0.58146 2.1847 1.6126 4.062 2.5332 5.6959 0.86846 1.5414 1.8269 2.5202 3.2443 3.6986 1.7236 1.3489 4.7847-0.0788 3.5794-2.7824-1.3204-3.0895-3.3554-5.9348-5.4606-9.2839z" fill="#3d90e3" stroke="#3d90e3"/>
   <path d="m165.32 121.23c2.8544-0.98103-0.13692-4.3905-1.4403-4.4995-2.2596-0.0705-4.354 0.37808-6.1835 0.79066-1.7259 0.3892-2.9387 1.0262-4.4745 2.0455-1.7871 1.2636-1.2986 4.6058 1.6372 4.2276 4.0437-0.35994 7.3305-1.2628 10.461-2.5643z" fill="#cbdef1" stroke="#cbdef1"/>
   <path d="m-64.834 125.23c1.8575-2.379-2.5091-3.6055-3.6611-2.9861-1.9325 1.1732-3.4434 2.6914-4.7518 4.0349-1.2344 1.2674-1.9036 2.4628-2.6351 4.1547-0.80886 2.0338 1.4233 4.5688 3.6779 2.6508 3.1932-2.507 5.4558-5.0562 7.3701-7.8544z" fill="#3d90e3" stroke="#3d90e3"/>
   <path d="m-6.533 115.51c2.8495 0.995 2.6085-3.5343 1.6519-4.4262-1.7318-1.4532-3.6548-2.3965-5.3474-3.204-1.5968-0.76188-2.9437-1.0117-4.781-1.1609-2.1858-0.11275-3.8696 2.8154-1.329 4.3345 3.3998 2.2187 6.5406 3.5426 9.8054 4.4567z" fill="#3d90e3" stroke="#3d90e3"/>
   <path d="m79.295 184.31c2.8307-1.0474-0.23937-4.3861-1.5449-4.4647-2.2607-0.0177-4.344 0.47961-6.1634 0.93479-1.7163 0.42937-2.9139 1.0945-4.4256 2.1494-1.7571 1.305-1.1908 4.6348 1.7355 4.1883 4.0342-0.45423 7.299-1.4335 10.398-2.8078z" fill="#cbdef1" stroke="#cbdef1"/>
  </g>
  <g fill="#3d90e3" stroke="#3d90e3">
   <path d="m13.853 151.99c1.6978 2.4955 4.1996-1.2878 3.9617-2.5738-0.52682-2.1985-1.5108-4.101-2.3904-5.7573-0.82977-1.5626-1.7635-2.5649-3.1512-3.7783-1.6895-1.3915-4.7852-0.0405-3.6476 2.6923 1.4116 3.8063 3.1478 6.7396 5.2275 9.4171z" stroke-width="1px"/>
   <path d="m33.36 179.56c-1.2427 0.71808-3.5835 2.4578-1.1424 5.3852 1.1364 1.22 4.8719 2.8825 7.6013 2.6048 2.2986-0.57693 2.1522-3.7376 0.45959-5.1586-1.1382-0.98275-5.1559-3.5711-6.9185-2.8313z" stroke-width="1.0388px"/>
   <path d="m3.0594 120.84c-1.4352 0.0201-4.3273 0.39586-3.6257 4.1424 0.39627 1.6195 2.845 4.8939 5.3627 5.9838 2.2878 0.61844 3.7028-2.2115 2.9192-4.278-0.51369-1.4133-2.7568-5.6336-4.6562-5.8482z" stroke-width="1.0388px"/>
  </g>
  <g fill="#cbdef1" stroke="#cbdef1" stroke-width="1px">
   <path d="m262.95 187.7c2.9437 0.66665 2.1924-3.8064 1.1412-4.5845-1.8849-1.2482-3.9022-1.9681-5.6752-2.5793-1.6726-0.57656-3.0392-0.67255-4.8815-0.61329-2.1846 0.13496-3.5267 3.2346-0.83071 4.4569 3.6287 1.8204 6.8991 2.7809 10.246 3.3202z"/>
   <path d="m292.6 182.85c-0.40503 1.4599-0.93373 4.4663 2.4862 4.4748 1.5057-0.0907 5.0347-1.9455 6.7104-4.2903 1.2037-2.2021-0.80739-4.1817-2.8104-3.784-1.3634 0.24945-5.6432 1.7138-6.3863 3.5996z"/>
   <path d="m306.81 173.33c-0.40503 1.4599-0.93373 4.4663 2.4862 4.4748 1.5057-0.0907 5.0347-1.9455 6.7104-4.2903 1.2037-2.2021-0.80739-4.1817-2.8104-3.784-1.3634 0.24945-5.6432 1.7138-6.3863 3.5996z"/>
  </g>
  <g>
   <ellipse cx="-30.293" cy="108.11" rx="3.3836" ry="3.3836" fill="#3d90e3" stroke="#3d90e3" stroke-width="8.3509"/>
   <rect x="-34.415" y="122.58" width="8.2426" height="8.2425" fill="#3d90e3" stroke="#3d90e3" stroke-linejoin="round" stroke-width="10.655"/>
   <text transform="scale(1.0325 .96857)" x="-37.338058" y="138.13342" fill="#fefefe" font-family="sans-serif" font-size="22.528px" stroke-width=".56319" style="line-height:1.25" xml:space="preserve"><tspan x="-37.338058" y="138.13342" fill="#fefefe" font-family="'Rockwell Extra Bold'" stroke-width=".56319">1</tspan></text>
   <ellipse cx="53.356" cy="187.61" rx="3.3836" ry="3.3836" fill="#3d90e3" stroke="#3d90e3" stroke-width="8.3509"/>
   <rect x="49.235" y="164.59" width="8.2426" height="8.2425" fill="#3d90e3" stroke="#3d90e3" stroke-linejoin="round" stroke-width="10.655"/>
   <text transform="scale(.88946 1.1243)" x="53.453064" y="156.36922" fill="#fefefe" font-family="sans-serif" font-size="19.408px" stroke-width=".48519" style="line-height:1.25" xml:space="preserve"><tspan x="53.453064" y="156.36922" fill="#fefefe" font-family="'Rockwell Extra Bold'" stroke-width=".48519">2</tspan></text>
   <ellipse cx="176.24" cy="118.75" rx="3.3836" ry="3.3836" fill="#3d90e3" stroke="#3d90e3" stroke-width="8.3509"/>
   <rect x="172.11" y="133.22" width="8.2426" height="8.2425" fill="#3d90e3" stroke="#3d90e3" stroke-linejoin="round" stroke-width="10.655"/>
   <text transform="scale(.86651 1.1541)" x="197.09142" y="125.03785" fill="#fefefe" font-family="sans-serif" font-size="18.735px" stroke-width=".46838" style="line-height:1.25" xml:space="preserve"><tspan x="197.09142" y="125.03785" fill="#fefefe" font-family="'Rockwell Extra Bold'" stroke-width=".46838">3</tspan></text>
   <ellipse cx="277.75" cy="187.61" rx="3.3836" ry="3.3836" fill="#3d90e3" stroke="#3d90e3" stroke-width="8.3509"/>
   <rect x="273.63" y="164.59" width="8.2426" height="8.2425" fill="#3d90e3" stroke="#3d90e3" stroke-linejoin="round" stroke-width="10.655"/>
   <text transform="scale(.85156 1.1743)" x="320.03012" y="149.70657" fill="#fefefe" font-family="sans-serif" font-size="18.581px" stroke-width=".46452" style="line-height:1.25" xml:space="preserve"><tspan x="320.03012" y="149.70657" fill="#fefefe" font-family="'Rockwell Extra Bold'" stroke-width=".46452">4</tspan></text>
  </g>
  <g fill="#000000" font-family="sans-serif" font-size="17.333px">
   <text x="-78.478012" y="158.61914" style="line-height:1.25" xml:space="preserve"><tspan x="-78.478012" y="158.61914" font-size="17.333px">Zgłoszono</tspan></text>
   <text x="28.021992" y="150.36914" style="line-height:1.25" xml:space="preserve"><tspan x="28.021992" y="150.36914" font-size="17.333px">Wysłano</tspan></text>
   <text x="124.27199" y="165.36914" style="line-height:1.25" xml:space="preserve"><tspan x="124.27199" y="165.36914" font-size="17.333px">Do odbioru</tspan></text>
   <text x="233.41844" y="153.08664" style="line-height:1.25" xml:space="preserve"><tspan x="233.41844" y="153.08664" font-size="17.333px">Odebrana</tspan></text>
  </g>
 </g>
</svg>
